<?xml version="1.0" encoding="UTF-8"?>
<svg width="18px" height="15px" viewBox="0 0 18 15" version="1.1" xmlns="http://www.w3.org/2000/svg" xmlns:xlink="http://www.w3.org/1999/xlink">
    <title>arrow</title>
    <g id="arrow" stroke="none" stroke-width="1" fill="none" fill-rule="evenodd">
        <path d="M10.0748454,0.165208561 L9.74214123,0.497969067 C9.52190042,0.718247149 9.52190042,1.07444149 9.74214123,1.29471958 L15.1778718,6.70324949 L0.562316954,6.70324949 C0.253042629,6.70324949 0,6.95633495 0,7.26566162 L0,7.73433838 C0,8.04366505 0.253042629,8.29675051 0.562316954,8.29675051 L15.1778718,8.29675051 L9.7468272,13.7052804 C9.5265864,13.9255585 9.5265864,14.2817529 9.7468272,14.5020309 L10.0795314,14.8347914 C10.2997722,15.0550695 10.6559063,15.0550695 10.8761471,14.8347914 L17.8348194,7.89837525 C18.0550602,7.67809717 18.0550602,7.32190283 17.8348194,7.10162475 L10.8714611,0.165208561 C10.6512203,-0.0550695204 10.2950862,-0.0550695204 10.0748454,0.165208561 Z" fill="#204066" fill-rule="nonzero"></path>
    </g>
</svg>