<?xml version="1.0" encoding="UTF-8"?>
<svg width="93px" height="24px" viewBox="0 0 93 24" version="1.1" xmlns="http://www.w3.org/2000/svg" xmlns:xlink="http://www.w3.org/1999/xlink">
    <title>Group 3</title>
    <g id="Page-1" stroke="none" stroke-width="1" fill="none" fill-rule="evenodd">
        <g id="fast-futures-intro" transform="translate(-723.000000, -976.000000)" fill="#204066" fill-rule="nonzero">
            <g id="built-on-fantom" transform="translate(625.000000, 976.000000)">
                <g id="Group-3" transform="translate(98.000000, 0.000000)">
                    <path d="M1.90499258,4.10150181 C1.93420658,3.8142214 2.11838432,3.54625879 2.47698344,3.35781246 L2.47698344,3.35781246 L8.42916216,0.229901335 C9.01247534,-0.0766337782 9.90004116,-0.0766337782 10.4833543,0.229901335 L10.4833543,0.229901335 L16.435533,3.35781246 C16.7868648,3.54243973 16.9798077,3.81755289 17.0143619,4.10156553 L17.0200157,4.10150181 L17.0200157,19.8239254 C17.0123562,20.1336157 16.8176025,20.4414074 16.435533,20.6421875 L16.435533,20.6421875 L10.4833543,23.7700987 C9.90004116,24.0766338 9.01247534,24.0766338 8.42916216,23.7700987 L8.42916216,23.7700987 L2.47698344,20.6421875 C2.09659163,20.442289 1.91403563,20.1324195 1.90499258,19.8239254 L1.90499258,19.8239254 L1.90499258,4.10150181 Z M16.083,12.872 L10.4833543,15.8156709 C9.90004116,16.122206 9.01247534,16.122206 8.42916216,15.8156709 L8.42916216,15.8156709 L2.841,12.879 L2.841,19.793 L8.42916216,22.7136199 C8.7176195,22.8669483 9.01608661,23.0168382 9.30984159,23.0572492 L9.45625825,23.0678405 C9.78991562,23.0689525 10.1138352,22.9003804 10.4423261,22.7408079 L10.4423261,22.7408079 L16.083,19.767 L16.083,12.872 Z M0.936881596,19.4821336 C0.936881596,20.0845294 1.00724765,20.4804587 1.14695925,20.7593899 C1.26275927,20.9905822 1.43650886,21.1672634 1.75376419,21.3822464 L1.77187588,21.3944568 C1.84149906,21.4411586 1.91819721,21.49009 2.01155805,21.5475865 L2.12165514,21.614677 L2.45973602,21.8176705 L1.97483687,22.6152658 L1.59643831,22.387883 L1.53283566,22.3490321 C1.423424,22.281838 1.33274131,22.2241094 1.24815494,22.1673705 C0.343968781,21.5608608 0.00675456013,20.8996066 0.000100694324,19.5240369 L1.11022302e-14,19.4821336 L0.936881596,19.4821336 Z M8.987,8.659 L8.8667132,8.71029255 L2.91453448,11.8382037 C2.90828837,11.841486 2.90233165,11.8447368 2.89666141,11.8479455 L2.89666141,11.8479455 L2.89162259,11.8508545 L2.90096785,11.8561777 L2.91453448,11.8635053 L8.8667132,14.9914164 C8.90357688,15.0107885 8.9439934,15.0278535 8.98711651,15.0426114 L8.987,8.659 Z M9.92539998,8.65909752 L9.924,15.041 L10.0458033,14.9914164 L15.997982,11.8635053 C16.0042281,11.8602229 16.0101848,11.8569722 16.0158551,11.8537635 L16.0158551,11.8537635 L16.0208939,11.8508545 L16.0115486,11.8455312 L15.997982,11.8382037 L10.0458033,8.71029255 C10.0089396,8.69092043 9.96852309,8.67385542 9.92539998,8.65909752 Z M16.083,5.216 L10.743,8.022 L16.083,10.828 L16.083,5.216 Z M2.841,5.223 L2.841,10.821 L8.169,8.022 L2.841,5.223 Z M10.0458033,1.05415583 C9.73627022,0.89149406 9.17624627,0.89149406 8.8667132,1.05415583 L8.8667132,1.05415583 L2.91453448,4.18206696 C2.90828837,4.18534933 2.90233165,4.18860008 2.89666141,4.19180876 L2.89666141,4.19180876 L2.89162259,4.19471776 L2.90096785,4.200041 L2.91453448,4.20736857 L8.8667132,7.3352797 C9.17624627,7.49794147 9.73627022,7.49794147 10.0458033,7.3352797 L10.0458033,7.3352797 L15.997982,4.20736857 C16.0042281,4.20408619 16.0101848,4.20083544 16.0158551,4.19762676 L16.0158551,4.19762676 L16.0208939,4.19471776 L16.0115486,4.18939453 L15.997982,4.18206696 Z M16.9626631,1.39716296 L17.3410617,1.62454579 L17.4046643,1.66339667 C17.514076,1.7305908 17.6047587,1.78831943 17.6893451,1.84505826 C18.5935312,2.45156804 18.9307454,3.1128222 18.9373993,4.48839193 L18.9375,4.53029518 L18.0006184,4.53029518 C18.0006184,3.92789934 17.9302523,3.53197009 17.7905408,3.2530389 C17.6747407,3.02184663 17.5009911,2.84516536 17.1837358,2.63018238 L17.1656241,2.617972 C17.0960009,2.57127018 17.0193028,2.52233875 16.925942,2.4648423 L16.8158449,2.39775176 L16.477764,2.19475832 L16.9626631,1.39716296 Z" id="Combined-Shape"></path>
                    <path d="M28.4550409,19.1684237 L28.4550409,10.4003514 L30.8865804,10.4003514 L30.8865804,8.79492972 L28.4550409,8.79492972 L28.4550409,7.64231928 C28.4550409,6.33877175 29.0251476,5.68699799 30.165361,5.68699799 C30.4950613,5.68699799 30.8453678,5.7418842 31.2162807,5.85165663 L31.2162807,5.85165663 L31.2162807,4.14332329 C30.7629428,4.00610776 30.2615236,3.9375 29.7120232,3.9375 C28.6542348,3.9375 27.8334185,4.23937416 27.2495743,4.84312249 C26.66573,5.44687082 26.3738079,6.3250502 26.3738079,7.47766064 L26.3738079,7.47766064 L26.3738079,8.79492972 L24.375,8.79492972 L24.375,10.4003514 L26.3738079,10.4003514 L26.3738079,19.1684237 L28.4550409,19.1684237 Z M36.9036104,19.3125 C37.700386,19.3125 38.3975647,19.1478414 38.9951465,18.8185241 C39.5927282,18.4892068 40.0426317,18.0158133 40.3448569,17.3983434 L40.3448569,17.3983434 L40.3448569,19.1684237 L42.4054837,19.1684237 L42.4054837,8.79492972 L40.3448569,8.79492972 L40.3448569,10.4826807 C40.0288942,9.86521084 39.5755563,9.38838688 38.9848433,9.05220884 C38.3941303,8.71603079 37.700386,8.54794177 36.9036104,8.54794177 C36.0106721,8.54794177 35.2138965,8.77434739 34.5132834,9.22715863 C33.8126703,9.67996988 33.2666042,10.3180221 32.8750851,11.1413153 C32.4835661,11.9646084 32.2878065,12.9113956 32.2878065,13.9816767 C32.2878065,15.0519578 32.4801317,15.9884538 32.864782,16.7911647 C33.2494323,17.5938755 33.7886297,18.2147758 34.482374,18.6538655 C35.1761183,19.0929552 35.9831971,19.3125 36.9036104,19.3125 Z M37.3981608,17.6659137 C36.4502725,17.6659137 35.7118812,17.3434572 35.1829871,16.6985442 C34.6540929,16.0536312 34.3896458,15.1480087 34.3896458,13.9816767 C34.3896458,12.8016232 34.6540929,11.8788487 35.1829871,11.2133534 C35.7118812,10.5478581 36.4434037,10.2151104 37.3775545,10.2151104 C38.3254428,10.2151104 39.0569653,10.5375669 39.5721219,11.1824799 C40.0872786,11.8273929 40.3448569,12.7467369 40.3448569,13.940512 C40.3448569,15.1205656 40.0872786,16.0364793 39.5721219,16.688253 C39.0569653,17.3400268 38.3323115,17.6659137 37.3981608,17.6659137 Z M47.5158379,19.1684237 L47.5158379,13.2612952 C47.5158379,12.3419511 47.780285,11.6078481 48.3091792,11.0589859 C48.8380733,10.5101238 49.5421208,10.2356928 50.4213215,10.2356928 C51.1906222,10.2356928 51.7504257,10.4415161 52.1007323,10.8531627 C52.4510388,11.2648092 52.6261921,11.9234438 52.6261921,12.8290663 L52.6261921,12.8290663 L52.6261921,19.1684237 L54.7074251,19.1684237 L54.7074251,12.7055723 C54.7074251,9.93381861 53.4641803,8.54794177 50.9776907,8.54794177 C50.1809151,8.54794177 49.4699989,8.72289157 48.8449421,9.07279116 C48.2198853,9.42269076 47.7425068,9.92695783 47.4128065,10.5855924 L47.4128065,10.5855924 L47.2273501,8.79492972 L45.290361,8.79492972 C45.4002611,9.65938755 45.4552112,10.6336178 45.4552112,11.7176205 L45.4552112,11.7176205 L45.4552112,19.1684237 L47.5158379,19.1684237 Z M61.6723433,19.3125 C62.2493188,19.3125 62.7644755,19.2370315 63.2178134,19.0860944 L63.2178134,19.0860944 L63.2178134,17.3983434 C62.8469005,17.5081158 62.4828565,17.563002 62.1256812,17.563002 C61.5761807,17.563002 61.1468835,17.4154953 60.8377895,17.1204819 C60.5286955,16.8254685 60.3741485,16.3212015 60.3741485,15.6076807 L60.3741485,15.6076807 L60.3741485,10.4003514 L63.2384196,10.4003514 L63.2384196,8.79492972 L60.3741485,8.79492972 L60.3741485,5.4811747 L58.2929155,6.20155622 L58.2929155,8.79492972 L56.2735014,8.79492972 L56.2735014,10.4003514 L58.2929155,10.4003514 L58.2929155,15.7723394 C58.2929155,16.9249498 58.588272,17.8031292 59.178985,18.4068775 C59.769698,19.0106258 60.6008174,19.3125 61.6723433,19.3125 Z M69.6263624,19.3125 C70.6292007,19.3125 71.5152702,19.0929552 72.2845708,18.6538655 C73.0538715,18.2147758 73.6480188,17.5904451 74.0670129,16.7808735 C74.486007,15.9713019 74.6955041,15.0245147 74.6955041,13.940512 C74.6955041,12.8565094 74.486007,11.9062918 74.0670129,11.0898594 C73.6480188,10.273427 73.0538715,9.645666 72.2845708,9.20657631 C71.5152702,8.76748661 70.6292007,8.54794177 69.6263624,8.54794177 C68.6097866,8.54794177 67.7168483,8.76748661 66.9475477,9.20657631 C66.178247,9.645666 65.5840997,10.273427 65.1651056,11.0898594 C64.7461115,11.9062918 64.5366144,12.8565094 64.5366144,13.940512 C64.5366144,15.0245147 64.7461115,15.9713019 65.1651056,16.7808735 C65.5840997,17.5904451 66.178247,18.2147758 66.9475477,18.6538655 C67.7168483,19.0929552 68.6097866,19.3125 69.6263624,19.3125 Z M69.6057561,17.6659137 C68.6578678,17.6659137 67.9263454,17.3503179 67.4111887,16.7191265 C66.896032,16.0879351 66.6384537,15.1617303 66.6384537,13.940512 C66.6384537,12.7467369 66.8994664,11.8273929 67.4214918,11.1824799 C67.9435173,10.5375669 68.6784741,10.2151104 69.6263624,10.2151104 C70.5605132,10.2151104 71.2851669,10.5375669 71.8003236,11.1824799 C72.3154802,11.8273929 72.5730586,12.7467369 72.5730586,13.940512 C72.5730586,15.1617303 72.3189146,16.0879351 71.8106267,16.7191265 C71.3023388,17.3503179 70.5673819,17.6659137 69.6057561,17.6659137 Z M79.1876703,19.1684237 L79.1876703,13.3024598 C79.1876703,12.3556727 79.421208,11.6078481 79.8882834,11.0589859 C80.3553588,10.5101238 80.9872843,10.2356928 81.7840599,10.2356928 C82.4709355,10.2356928 82.9689203,10.4415161 83.2780143,10.8531627 C83.5871083,11.2648092 83.7416553,11.916583 83.7416553,12.8084839 L83.7416553,12.8084839 L83.7416553,19.1684237 L85.8228883,19.1684237 L85.8228883,13.3024598 C85.8228883,12.3556727 86.0529916,11.6078481 86.5131982,11.0589859 C86.9734049,10.5101238 87.601896,10.2356928 88.3986717,10.2356928 C89.0855472,10.2356928 89.583532,10.4415161 89.892626,10.8531627 C90.20172,11.2648092 90.356267,11.916583 90.356267,12.8084839 L90.356267,12.8084839 L90.356267,19.1684237 L92.4375,19.1684237 L92.4375,12.7055723 C92.4375,9.93381861 91.283549,8.54794177 88.9756471,8.54794177 C88.2063465,8.54794177 87.5160366,8.72632195 86.9047173,9.08308233 C86.293398,9.4398427 85.829757,9.92695783 85.5137943,10.5444277 C85.0192439,9.21343708 83.9683243,8.54794177 82.3610354,8.54794177 C81.6054723,8.54794177 80.9460718,8.71946118 80.3828338,9.0625 C79.8195958,9.40553882 79.3868642,9.89265395 79.084639,10.5238454 L79.084639,10.5238454 L78.8991826,8.79492972 L76.9621935,8.79492972 C77.0720936,9.65938755 77.1270436,10.6336178 77.1270436,11.7176205 L77.1270436,11.7176205 L77.1270436,19.1684237 L79.1876703,19.1684237 Z" id="fantom"></path>
                </g>
            </g>
        </g>
    </g>
</svg>