<?xml version="1.0" encoding="UTF-8"?>
<svg width="12px" height="18px" viewBox="0 0 12 18" version="1.1" xmlns="http://www.w3.org/2000/svg" xmlns:xlink="http://www.w3.org/1999/xlink">
    <title>Help</title>
    <g id="Help" stroke="none" stroke-width="1" fill="none" fill-rule="evenodd">
        <path d="M5.90484536,14.4 C4.93424016,14.4 4.14741225,15.2058857 4.14741225,16.2 C4.14741225,17.1941143 4.93424016,18 5.90484536,18 C6.87545057,18 7.66227848,17.1941143 7.66227848,16.2 C7.66227848,15.2058857 6.87545057,14.4 5.90484536,14.4 Z M6.38625651,12.8571429 L5.38200901,12.8571429 C4.96606225,12.8571429 4.62882339,12.5117357 4.62882339,12.0857143 L4.62882339,12.0612214 C4.62882339,7.53917143 9.48938126,7.97142857 9.48938126,5.15642143 C9.48938126,3.86967857 8.37460378,2.57142857 5.88413276,2.57142857 C4.05489595,2.57142857 3.1058193,3.19172143 2.16772661,4.41591429 C1.92243916,4.73605714 1.47391712,4.80130714 1.14791328,4.56865714 L0.323551616,3.98044286 C-0.0295041437,3.72850714 -0.107019497,3.22373571 0.157536952,2.87620714 C1.48979678,1.1259 3.07048234,0 5.88413276,0 C9.16802207,0 12,1.91256429 12,5.15642143 C12,9.49017857 7.13944213,9.261 7.13944213,12.0612214 L7.13944213,12.0857143 C7.13944213,12.5117357 6.80220326,12.8571429 6.38625651,12.8571429 L6.38625651,12.8571429 Z" fill="#788FA7" fill-rule="nonzero"></path>
    </g>
</svg>