<?xml version="1.0" encoding="UTF-8"?>
<svg width="18px" height="16px" viewBox="0 0 18 16" version="1.1" xmlns="http://www.w3.org/2000/svg" xmlns:xlink="http://www.w3.org/1999/xlink">
    <title>leaderboard-fill</title>
    <g id="leaderboard-fill" stroke="none" stroke-width="1" fill="none" fill-rule="evenodd">
        <path d="M17.25,2 L14,2 L14,0.75 C14,0.334375 13.665625,0 13.25,0 L4.75,0 C4.334375,0 4,0.334375 4,0.75 L4,2 L0.75,2 C0.334375,2 0,2.334375 0,2.75 L0,4.5 C0,5.615625 0.703125,6.7625 1.934375,7.646875 C2.91875,8.35625 4.115625,8.80625 5.371875,8.95 C6.353125,10.578125 7.5,11.25 7.5,11.25 L7.5,13.5 L6,13.5 C4.896875,13.5 4,14.146875 4,15.25 L4,15.625 C4,15.83125 4.16875,16 4.375,16 L13.625,16 C13.83125,16 14,15.83125 14,15.625 L14,15.25 C14,14.146875 13.103125,13.5 12,13.5 L10.5,13.5 L10.5,11.25 C10.5,11.25 11.646875,10.578125 12.628125,8.95 C13.8875,8.80625 15.084375,8.35625 16.065625,7.646875 C17.29375,6.7625 18,5.615625 18,4.5 L18,2.75 C18,2.334375 17.665625,2 17.25,2 Z M3.103125,6.025 C2.340625,5.475 2,4.8625 2,4.5 L2,4 L4.00625,4 C4.0375,5.01875 4.1875,5.9125 4.40625,6.69375 C3.934375,6.53125 3.49375,6.30625 3.103125,6.025 L3.103125,6.025 Z M16,4.5 C16,5.003125 15.446875,5.628125 14.896875,6.025 C14.50625,6.30625 14.0625,6.53125 13.590625,6.69375 C13.809375,5.9125 13.959375,5.01875 13.990625,4 L16,4 L16,4.5 Z" id="Shape" fill="#1F4066" fill-rule="nonzero"></path>
    </g>
</svg>