<?xml version="1.0" encoding="UTF-8"?>
<svg width="18px" height="16px" viewBox="0 0 18 16" version="1.1" xmlns="http://www.w3.org/2000/svg" xmlns:xlink="http://www.w3.org/1999/xlink">
    <title>Leaderboard</title>
    <g id="Leaderboard" stroke="none" stroke-width="1" fill="none" fill-rule="evenodd">
        <path d="M14,2 L14,0.375 C14,0.16875 13.83125,0 13.625,0 L4.375,0 C4.16875,0 4,0.16875 4,0.375 L4,2 L0.375,2 C0.16875,2 0,2.16875 0,2.375 L0,4.3 C0,6.240625 2.128125,8.5 5.021875,8.928125 C5.940625,10.825 7.325,11.75 8.5,11.95625 L8.5,15 L5.8125,15 C5.3625,15 5,15.365625 5,15.815625 C5,15.91875 5.084375,16 5.1875,16 L12.8125,16 C12.915625,16 13,15.91875 13,15.815625 C13,15.365625 12.6375,15 12.1875,15 L9.5,15 L9.5,11.95625 C10.678125,11.75 12.059375,10.825 12.978125,8.928125 C15.875,8.5 18,6.2375 18,4.3 L18,2.375 C18,2.16875 17.83125,2 17.625,2 L14,2 Z M1,4.3 L1,3 L4,3 L4,3.75 C4,5.36875 4.21875,6.715625 4.578125,7.81875 C2.434375,7.265625 1,5.5625 1,4.3 Z M9,11 C6.75,11 5,7.75 5,3.75 L5,1 L13,1 L13,3.75 C13,7.75 11.25,11 9,11 Z M17,4.3 C17,5.5625 15.5625,7.265625 13.421875,7.81875 C13.78125,6.715625 14,5.36875 14,3.75 L14,3 L17,3 L17,4.3 Z" fill="#788FA7" fill-rule="nonzero"></path>
    </g>
</svg>