<?xml version="1.0" encoding="UTF-8"?>
<svg width="62px" height="58px" viewBox="0 0 62 58" version="1.1" xmlns="http://www.w3.org/2000/svg" xmlns:xlink="http://www.w3.org/1999/xlink">
    <title>metamask-fox</title>
    <g id="Page-1" stroke="none" stroke-width="1" fill="none" fill-rule="evenodd" stroke-linecap="round" stroke-linejoin="round">
        <g id="fast-futures-intro" transform="translate(-482.000000, -483.000000)" fill-rule="nonzero" stroke-width="0.538461538">
            <g id="login" transform="translate(445.000000, 422.000000)">
                <g id="metamask-fox" transform="translate(38.000000, 62.000000)">
                    <polygon id="Path" stroke="#E2761B" fill="#E2761B" points="57.26875 0.117788462 33.8288462 17.5269231 38.1634615 7.25576923"></polygon>
                    <g id="Group" transform="translate(0.471154, 0.000000)" fill="#E4761B" stroke="#E4761B">
                        <polygon id="Path" points="2.68557692 0.117788462 25.9370192 17.6918269 21.8144231 7.25576923"></polygon>
                        <polygon id="Path" points="48.3639423 40.4721154 42.1211538 50.0365385 55.4783654 53.7115385 59.3182692 40.6841346"></polygon>
                        <polygon id="Path" points="0.212019231 40.6841346 4.02836538 53.7115385 17.3855769 50.0365385 11.1427885 40.4721154"></polygon>
                        <polygon id="Path" points="16.6317308 24.3115385 12.9096154 29.9418269 26.1725962 30.5307692 25.7014423 16.2783654"></polygon>
                        <polygon id="Path" points="42.8514423 24.3115385 33.6639423 16.1134615 33.3576923 30.5307692 46.5971154 29.9418269"></polygon>
                        <polygon id="Path" points="17.3855769 50.0365385 25.3480769 46.1495192 18.4692308 40.7783654"></polygon>
                        <polygon id="Path" points="34.1350962 46.1495192 42.1211538 50.0365385 41.0139423 40.7783654"></polygon>
                    </g>
                    <g id="Group" transform="translate(17.668269, 45.937500)" fill="#D7C1B3" stroke="#D7C1B3">
                        <polygon id="Path" points="24.9240385 4.09903846 16.9379808 0.212019231 17.5740385 5.41826923 17.5033654 7.60913462"></polygon>
                        <polygon id="Path" points="0.188461538 4.09903846 7.60913462 7.60913462 7.56201923 5.41826923 8.15096154 0.212019231"></polygon>
                    </g>
                    <polygon id="Path" stroke="#233447" fill="#233447" points="25.3951923 37.3389423 18.7519231 35.3836538 23.4399038 33.2399038"></polygon>
                    <polygon id="Path" stroke="#233447" fill="#233447" points="35.0302885 37.3389423 36.9855769 33.2399038 41.6971154 35.3836538"></polygon>
                    <g id="Group" transform="translate(11.543269, 29.918269)" fill="#CD6116" stroke="#CD6116">
                        <polygon id="Path" points="6.31346154 20.1182692 7.44423077 10.5538462 0.0706730769 10.7658654"></polygon>
                        <polygon id="Path" points="29.9182692 10.5538462 31.0490385 20.1182692 37.2918269 10.7658654"></polygon>
                        <polygon id="Path" points="35.525 0.0235576923 22.2855769 0.6125 23.5105769 7.42067308 25.4658654 3.32163462 30.1774038 5.46538462"></polygon>
                        <polygon id="Path" points="7.20865385 5.46538462 11.9201923 3.32163462 13.8519231 7.42067308 15.1004808 0.6125 1.8375 0.0235576923"></polygon>
                    </g>
                    <g id="Group" transform="translate(13.192308, 29.918269)" fill="#E4751F" stroke="#E4751F">
                        <polygon id="Path" points="0.188461538 0.0235576923 5.74807692 10.8600962 5.55961538 5.46538462"></polygon>
                        <polygon id="Path" points="28.5283654 5.46538462 28.2927885 10.8600962 33.8759615 0.0235576923"></polygon>
                        <polygon id="Path" points="13.4514423 0.6125 12.2028846 7.42067308 13.7576923 15.4538462 14.1110577 4.87644231"></polygon>
                        <polygon id="Path" points="20.6365385 0.6125 20.0004808 4.85288462 20.2831731 15.4538462 21.8615385 7.42067308"></polygon>
                    </g>
                    <polygon id="Path" stroke="#F6851B" fill="#F6851B" points="35.0538462 37.3389423 33.4754808 45.3721154 34.60625 46.1495192 41.4850962 40.7783654 41.7206731 35.3836538"></polygon>
                    <polygon id="Path" stroke="#F6851B" fill="#F6851B" points="18.7519231 35.3836538 18.9403846 40.7783654 25.8192308 46.1495192 26.95 45.3721154 25.3951923 37.3389423"></polygon>
                    <polygon id="Path" stroke="#C0AD9E" fill="#C0AD9E" points="35.1716346 53.5466346 35.2423077 51.3557692 34.6533654 50.8375 25.7721154 50.8375 25.2302885 51.3557692 25.2774038 53.5466346 17.8567308 50.0365385 20.4480769 52.1567308 25.7014423 55.8081731 34.7240385 55.8081731 40.0009615 52.1567308 42.5923077 50.0365385"></polygon>
                    <polygon id="Path" stroke="#161616" fill="#161616" points="34.60625 46.1495192 33.4754808 45.3721154 26.95 45.3721154 25.8192308 46.1495192 25.2302885 51.3557692 25.7721154 50.8375 34.6533654 50.8375 35.2423077 51.3557692"></polygon>
                    <g id="Group" fill="#763D16" stroke="#763D16">
                        <polygon id="Path" points="58.2581731 18.6576923 60.2605769 9.04615385 57.26875 0.117788462 34.60625 16.9379808 43.3225962 24.3115385 55.6432692 27.9158654 58.3759615 24.7355769 57.1980769 23.8875 59.0826923 22.1677885 57.6221154 21.0370192 59.5067308 19.6"></polygon>
                        <polygon id="Path" points="0.188461538 9.04615385 2.19086538 18.6576923 0.91875 19.6 2.80336538 21.0370192 1.36634615 22.1677885 3.25096154 23.8875 2.07307692 24.7355769 4.78221154 27.9158654 17.1028846 24.3115385 25.8192308 16.9379808 3.15673077 0.117788462"></polygon>
                    </g>
                    <polygon id="Path" stroke="#F6851B" fill="#F6851B" points="55.6432692 27.9158654 43.3225962 24.3115385 47.0682692 29.9418269 41.4850962 40.7783654 48.8350962 40.6841346 59.7894231 40.6841346"></polygon>
                    <polygon id="Path" stroke="#F6851B" fill="#F6851B" points="17.1028846 24.3115385 4.78221154 27.9158654 0.683173077 40.6841346 11.6139423 40.6841346 18.9403846 40.7783654 13.3807692 29.9418269"></polygon>
                    <polygon id="Path" stroke="#F6851B" fill="#F6851B" points="33.8288462 30.5307692 34.60625 16.9379808 38.1870192 7.25576923 22.2855769 7.25576923 25.8192308 16.9379808 26.64375 30.5307692 26.9264423 34.8182692 26.95 45.3721154 33.4754808 45.3721154 33.5225962 34.8182692"></polygon>
                </g>
            </g>
        </g>
    </g>
</svg>