<?xml version="1.0" encoding="UTF-8"?>
<svg width="18px" height="18px" viewBox="0 0 18 18" version="1.1" xmlns="http://www.w3.org/2000/svg" xmlns:xlink="http://www.w3.org/1999/xlink">
    <title>percentage-fill</title>
    <g id="percentage-fill" stroke="none" stroke-width="1" fill="none" fill-rule="evenodd">
        <path d="M5.1211776,5.12127762 C6.29257622,3.94985612 6.29257622,2.04998763 5.1211776,0.878566127 C3.94977897,-0.292855376 2.04994759,-0.292855376 0.878548968,0.878566127 C-0.292849656,2.04998763 -0.292849656,3.94985612 0.878548968,5.12127762 C2.05041634,6.29316788 3.94977897,6.29316788 5.1211776,5.12127762 Z M17.1210995,12.8787224 C15.9497008,11.7073009 14.0498695,11.7073009 12.8784708,12.8787224 C11.7070722,14.0501439 11.7070722,15.9500124 12.8784708,17.1214339 C14.0498695,18.2928554 15.9497008,18.2928554 17.1210995,17.1214339 C18.2929668,15.9500124 18.2929668,14.0506126 17.1210995,12.8787224 Z M17.0301626,2.03029987 L15.969857,0.969973567 C15.3839233,0.384028438 14.434242,0.384028438 13.848777,0.969973567 L0.969954623,13.8490475 C0.384020937,14.4349926 0.384020937,15.3846925 0.969954623,15.9701689 L2.03026022,17.0304952 C2.6161939,17.6164403 3.56587522,17.6164403 4.15134016,17.0304952 L17.0301626,4.15142124 C17.6160962,3.56594487 17.6160962,2.616245 17.0301626,2.03029987 Z" id="percentage" fill="#204066" fill-rule="nonzero"></path>
    </g>
</svg>