<?xml version="1.0" encoding="UTF-8"?>
<svg width="16px" height="16px" viewBox="0 0 16 16" version="1.1" xmlns="http://www.w3.org/2000/svg" xmlns:xlink="http://www.w3.org/1999/xlink">
    <title>Ratio</title>
    <g id="Ratio" stroke="none" stroke-width="1" fill="none" fill-rule="evenodd">
        <path d="M15.8830009,1.814 C16.0389997,1.658 16.0389997,1.4045 15.8830009,1.2485 L14.7515098,0.117 C14.595511,-0.039 14.342013,-0.039 14.1860142,0.117 L0.117124085,14.1855 C-0.0388746963,14.3415 -0.0388746963,14.595 0.117124085,14.751 L1.24861525,15.8825 C1.40461403,16.0385 1.65811205,16.0385 1.81411083,15.8825 L14.8250092,2.872 L15.8830009,1.814 Z M3.2001,6.4 C4.0190936,6.4 4.8380872,6.0875 5.46258232,5.463 C6.71207256,4.2135 6.71207256,2.187 5.46258232,0.9375 C4.8380872,0.3125 4.0190936,0 3.2001,0 C2.3811064,0 1.5621128,0.3125 0.937117679,0.9375 C-0.31237256,2.187 -0.31237256,4.2135 0.937117679,5.463 C1.5621128,6.0875 2.3811064,6.4 3.2001,6.4 Z M2.06910884,2.0685 C2.37110648,1.7665 2.77260334,1.6 3.2001,1.6 C3.62759666,1.6 4.02909352,1.7665 4.33159116,2.0685 C4.95558628,2.6925 4.95508629,3.7075 4.33159116,4.331 C4.02959352,4.6335 3.62759666,4.8 3.2001,4.8 C2.77260334,4.8 2.37110648,4.6335 2.06910884,4.3315 C1.44511371,3.7075 1.44511371,2.6925 2.06910884,2.0685 Z M12.800025,9.6 C11.9810314,9.6 11.1620378,9.9125 10.5370427,10.5375 C9.28755244,11.787 9.28755244,13.8135 10.5370427,15.063 C11.1620378,15.6875 11.9810314,16 12.800025,16 C13.6190186,16 14.4380122,15.6875 15.0625073,15.063 C16.3119976,13.8135 16.3119976,11.787 15.0625073,10.5375 C14.4380122,9.9125 13.6190186,9.6 12.800025,9.6 Z M13.9315162,13.9315 C13.6295185,14.2335 13.2275217,14.4 12.800025,14.4 C12.3725283,14.4 11.9710315,14.2335 11.6690338,13.9315 C11.0450387,13.3075 11.0450387,12.2925 11.6690338,11.6685 C11.9710315,11.3665 12.3730283,11.2 12.800025,11.2 C13.2275217,11.2 13.6290185,11.3665 13.9315162,11.6685 C14.5555113,12.2925 14.5550113,13.3075 13.9315162,13.9315 Z" fill="#788FA7" fill-rule="nonzero"></path>
    </g>
</svg>