<?xml version="1.0" encoding="UTF-8"?>
<svg width="18px" height="18px" viewBox="0 0 18 18" version="1.1" xmlns="http://www.w3.org/2000/svg" xmlns:xlink="http://www.w3.org/1999/xlink">
    <title>schedule-fill</title>
    <g id="schedule-fill" stroke="none" stroke-width="1" fill="none" fill-rule="evenodd">
        <path d="M9,0 C4.02822581,0 0,4.02822581 0,9 C0,13.9717742 4.02822581,18 9,18 C13.9717742,18 18,13.9717742 18,9 C18,4.02822581 13.9717742,0 9,0 Z M12.3564919,11.358871 L12.3564919,11.358871 L11.6306855,12.266129 C11.5344901,12.3863973 11.3944558,12.4635232 11.241392,12.4805378 C11.0883283,12.4975525 10.934775,12.453062 10.8145161,12.3568548 L10.8145161,12.3568548 L8.38306452,10.5525 C8.03893287,10.2769742 7.83865446,9.85999454 7.83870967,9.41915323 L7.83870967,3.77419355 C7.83870967,3.45351208 8.09867337,3.19354839 8.41935484,3.19354839 L9.58064516,3.19354839 C9.90132663,3.19354839 10.1612903,3.45351208 10.1612903,3.77419355 L10.1612903,9 L12.266129,10.5423387 C12.3864493,10.6385949 12.4635764,10.7787283 12.480525,10.9318784 C12.4974736,11.0850286 12.4528538,11.2386353 12.3564919,11.358871 Z" id="Shape" fill="#204066" fill-rule="nonzero"></path>
    </g>
</svg>