<?xml version="1.0" encoding="UTF-8"?>
<svg width="18px" height="18px" viewBox="0 0 18 18" version="1.1" xmlns="http://www.w3.org/2000/svg" xmlns:xlink="http://www.w3.org/1999/xlink">
    <title>Schedule</title>
    <g id="Schedule" stroke="none" stroke-width="1" fill="none" fill-rule="evenodd">
        <path d="M9,0 C4.02822581,0 0,4.02822581 0,9 C0,13.9717742 4.02822581,18 9,18 C13.9717742,18 18,13.9717742 18,9 C18,4.02822581 13.9717742,0 9,0 Z M16.8387097,9 C16.8387097,13.3076613 13.3512097,16.8387097 9,16.8387097 C4.69233871,16.8387097 1.16129032,13.3512097 1.16129032,9 C1.16129032,4.69233871 4.64879032,1.16129032 9,1.16129032 C13.3076613,1.16129032 16.8387097,4.64879032 16.8387097,9 Z M11.4350806,12.2044355 L8.48830645,10.0633065 C8.37580645,9.97983871 8.31048387,9.84919355 8.31048387,9.71129032 L8.31048387,3.91935484 C8.31048387,3.67983871 8.50645161,3.48387097 8.74596774,3.48387097 L9.25403226,3.48387097 C9.49354839,3.48387097 9.68951613,3.67983871 9.68951613,3.91935484 L9.68951613,9.22862903 L12.2479839,11.0903226 C12.4439516,11.2318548 12.483871,11.5040323 12.3423387,11.7 L12.0447581,12.1100806 C11.9032258,12.3024194 11.6310484,12.3459677 11.4350806,12.2044355 L11.4350806,12.2044355 Z" fill="#788FA7" fill-rule="nonzero"></path>
    </g>
</svg>