<?xml version="1.0" encoding="UTF-8"?>
<svg width="15px" height="18px" viewBox="0 0 15 18" version="1.1" xmlns="http://www.w3.org/2000/svg" xmlns:xlink="http://www.w3.org/1999/xlink">
    <title>withdraw-fill</title>
    <g id="withdraw-fill" stroke="none" stroke-width="1" fill="none" fill-rule="evenodd">
        <path d="M14.0625,18 L0.9375,18 C0.41796875,18 0,17.5700893 0,17.0357143 L0,16.0714286 C0,15.5370536 0.41796875,15.1071429 0.9375,15.1071429 L14.0625,15.1071429 C14.5820312,15.1071429 15,15.5370536 15,16.0714286 L15,17.0357143 C15,17.5700893 14.5820312,18 14.0625,18 Z M11.46875,6.72991071 L8.90625,9.365625 L8.90625,0.964285714 C8.90625,0.429910714 8.48828125,0 7.96875,0 L7.03125,0 C6.51171875,0 6.09375,0.429910714 6.09375,0.964285714 L6.09375,9.365625 L3.53125,6.72991071 C3.1640625,6.35223214 2.5703125,6.35223214 2.20703125,6.72991071 L1.54296875,7.41294643 C1.17578125,7.790625 1.17578125,8.40133929 1.54296875,8.775 L6.8359375,14.2191964 C7.203125,14.596875 7.796875,14.596875 8.16015625,14.2191964 L13.453125,8.775 C13.8203125,8.39732143 13.8203125,7.78660714 13.453125,7.41294643 L12.7890625,6.72991071 C12.4257812,6.35223214 11.8320313,6.35223214 11.46875,6.72991071 L11.46875,6.72991071 Z" id="Shape" fill="#1F4066" fill-rule="nonzero"></path>
    </g>
</svg>