<?xml version="1.0" encoding="UTF-8"?>
<svg width="16px" height="18px" viewBox="0 0 16 18" version="1.1" xmlns="http://www.w3.org/2000/svg" xmlns:xlink="http://www.w3.org/1999/xlink">
    <title>Withdraw</title>
    <g id="Withdraw" stroke="none" stroke-width="1" fill="none" fill-rule="evenodd">
        <path d="M14.5719731,9.37438969 L8.35694423,15.3748072 C8.15957507,15.5647194 7.84042493,15.5647194 7.64305577,15.3748072 L1.42802687,9.37438969 C1.23065771,9.18447748 1.23065771,8.87738541 1.42802687,8.6874732 L1.72618028,8.40058455 C1.92354945,8.21067235 2.24269958,8.21067235 2.44006874,8.40058455 L7.28611155,13.0877794 L7.28611155,0.484882225 C7.28611155,0.218197001 7.51287611,0 7.79003281,0 L8.20996719,0 C8.48712389,0 8.71388845,0.218197001 8.71388845,0.484882225 L8.71388845,13.0877794 L13.5599313,8.40462524 C13.7573004,8.21471303 14.0764506,8.21471303 14.2738197,8.40462524 L14.5719731,8.69151389 C14.7693423,8.87738541 14.7693423,9.18447748 14.5719731,9.37438969 Z M16,17.5344828 L16,17.2241379 C16,16.9681034 15.775,16.7586207 15.5,16.7586207 L0.5,16.7586207 C0.225,16.7586207 0,16.9681034 0,17.2241379 L0,17.5344828 C0,17.7905172 0.225,18 0.5,18 L15.5,18 C15.775,18 16,17.7905172 16,17.5344828 Z" fill="#788FA7" fill-rule="nonzero"></path>
    </g>
</svg>